<svg xmlns="http://www.w3.org/2000/svg" viewBox="0 0 24 24"><path fill="#2496ED" d="M13.983 11.078h2.119a.186.186 0 00.186-.185V9.006a.186.186 0 00-.186-.186h-2.119a.185.185 0 00-.185.185v1.888c0 .102.083.185.185.185m-2.954-5.43h2.119a.186.186 0 00.186-.186V3.574a.186.186 0 00-.186-.185h-2.119a.185.185 0 00-.185.185v1.888c0 .102.083.186.185.186m-2.955 5.43h2.119a.186.186 0 00.186-.185V9.006a.186.186 0 00-.186-.186H8.074a.185.185 0 00-.185.185v1.888c0 .102.083.185.185.185m-2.954 5.43h2.119a.186.186 0 00.186-.185V9.006a.186.186 0 00-.186-.186H5.12a.185.185 0 00-.185.185v1.888c0 .102.083.185.185.185m-2.955 0h2.119a.186.186 0 00.186-.185V9.006a.186.186 0 00-.186-.186H2.165a.185.185 0 00-.185.185v1.888c0 .102.083.185.185.185M4.746 4.506h2.119a.186.186 0 00.186-.186V2.432a.186.186 0 00-.186-.185H4.746a.185.185 0 00-.185.185v1.888c0 .102.083.186.185.186M1.24 8.783v6.126c0 .87 3.997 1.637 6.447 2.067.893 1.259 2.067 2.197 3.511 2.502 3.497.74 5.922-1.936 5.922-1.936s2.327-1.348 3.308-1.571c1.862-.423 2.15-2.022 2.15-2.022L24 10.278c-.732-2.197-3.951-2.033-5.266-1.89-1.935.213-3.61.802-5.419.689l-2.046-1.53c-.34-.34-.9.083-.9.467v.868H1.24z"/></svg>
