<svg xmlns="http://www.w3.org/2000/svg" viewBox="0 0 128 128"><path fill="#EA4335" d="M64 25.1c11.2 0 20.3 4.1 27.6 10.8l20.4-20.4C98.4 4.1 82.7-2.9 64-2.9 37.8-2.9 14.8 12.1 4 33.6l23.7 18.5C33.4 36.6 47.5 25.1 64 25.1z"/><path fill="#4285F4" d="M125.8 65.1c0-4.6-.4-8.7-1.2-12.7H64v24.2h36c-1.5 8.1-5.9 15.6-12.8 20.1l20.5 16c11.9-10.9 18.1-27.1 18.1-47.6z"/><path fill="#FBBC04" d="M27.7 75.9l-23.7 18.5C14.8 116 37.8 130.9 64 130.9c17.5 0 32.2-5.7 42.9-15.5l-20.5-16c-5.7 3.8-13 6.6-22.4 6.6-16.5 0-30.6-11.1-36.3-27v-3.1z"/><path fill="#34A853" d="M27.7 52.1C26.3 56.1 25.5 60.5 25.5 64s.7 7.9 2.1 11.9l-23.7-18.5C1.6 49.3 0 57.2 0 64c0 6.8 1.6 14.7 3.9 20.3L27.7 52.1z"/></svg>
