<svg xmlns="http://www.w3.org/2000/svg" viewBox="0 0 128 128"><path fill="#F05032" d="M116.3 54.8l-43-43c-6.1-6.1-16-6.1-22.1 0L6.7 56.3c-6.1 6.1-6.1 16 0 22.1l43 43c6.1 6.1 16 6.1 22.1 0l44.5-44.5c6.1-6.2 6.1-16.1 0-22.1z"/><path fill="#FFF" d="M58.3 98.7c-7.3 0-13.3-6-13.3-13.3 0-2 .4-3.8 1.2-5.5L34.1 67.7c-1.6.8-3.4 1.3-5.3 1.3-7.3 0-13.3-6-13.3-13.3s6-13.3 13.3-13.3c7.2 0 13 5.7 13.3 12.8l17.7 17.7c1.6-.8 3.4-1.3 5.3-1.3.4 0 .9 0 1.3.1V50.6c-4.4-1.9-7.5-6.3-7.5-11.4 0-6.9 5.6-12.5 12.5-12.5 6.9 0 12.5 5.6 12.5 12.5 0 5.1-3.1 9.5-7.5 11.4v21.3c2.7.9 5 2.8 6.5 5.3l15.1-15.1c-.1-.4-.1-.9-.1-1.3 0-7.3 6-13.3 13.3-13.3s13.3 6 13.3 13.3-6 13.3-13.3 13.3c-2 0-3.8-.4-5.5-1.2L75.6 94.6c.8 1.6 1.3 3.4 1.3 5.3-.1 6-5.4 10.9-11.4 10.9-4.1-.1-7.3-3.3-7.2-7.4 0-2.6 1.4-4.8 3.4-6.1l-6.1-6.1c-3.1-4.2-2.1-10.2 2.1-13.3.4-.3.8-.6 1.2-.8-.1-.4-.2-.8-.2-1.3 0-.1 0-.3.1-.4-.3-.1-.5-.1-.8-.1-2.9 0-5.6 1.3-7.3 3.3l-6.4 6.4c1.6 1.3 2.6 3.2 2.6 5.3 0 4.1-3.3 7.3-7.4 7.3z"/></svg>
