<svg xmlns="http://www.w3.org/2000/svg" viewBox="0 0 541 129"><path fill="#130754" d="M129.5 56.4c0 3.3-1 5.9-2.5 7.6-1.7 1.7-4.2 2.6-7.6 2.6H90.2v67.8c0 3.6-1 6.3-3 8-2 1.7-4.8 2.6-8.5 2.6H49.7c-3.6 0-6.3-.9-8.4-2.6-2-1.7-3-4.3-3-8V12.9c0-3.3 1-5.9 3-7.8s4.3-2.8 7.3-2.8h30.1c7.7 0 14.2 1.3 19.8 3.7 5.5 2.4 9.8 5.7 13 9.7 3.2 4 5.4 8.5 6.6 13.5 1.2 4.9 1.9 9.9 1.9 14.8v12.4zm-35.4-11.8c2.3 0 3.8-.7 4.9-1.9 1.1-1.3 1.6-3.3 1.6-6.1 0-2.7-.5-4.7-1.6-6.1-1-1.3-2.7-1.9-4.9-1.9H71.3V52h22.8z"/><path fill="#ffca00" d="M200.3 151h-29.2v-8.3c-1.9 3-4.5 5.4-8 7.4-3.5 2-7.6 2.9-12.3 2.9-4.3 0-8.3-.8-12-2.3-3.6-1.6-6.7-3.7-9.3-6.6-2.6-2.9-4.8-6.1-6.3-10-1.4-3.8-2.2-8-2.2-12.7 0-7.9 2.1-14.7 6.4-20.1 4.2-5.4 10.2-8.2 18.1-8.2 5.4 0 9.9 1.4 13.9 4.1v-4.3c0-4.1-1-7.1-3.1-9.2-2-2-4.9-3.1-8.6-3.1-2.1 0-4.4.4-6.6 1.2s-5.1 2.1-8.5 4l-3.6-6.9c0-.3.2-.6.8-1 3.5-2.2 6.8-3.8 9.9-4.9 3.1-1 6.2-1.6 9.4-1.6 9.6 0 16.9 2.4 21.8 7.3 4.9 4.9 7.3 11.8 7.3 20.7v42.6c0 3.4.8 6 2.5 7.6 1.7 1.7 4.2 2.6 7.6 2.6h2.1v9.2zM200.3 56.4c0 3.3-1 5.9-2.5 7.6-1.7 1.7-4.3 2.6-7.6 2.6H160v67.8c0 3.6-1 6.3-3 8-2 1.7-4.8 2.6-8.5 2.6h-29c-3.6 0-6.3-.9-8.4-2.6-2-1.7-3-4.3-3-8V66.6H85.2c-3.3 0-5.9-.9-7.6-2.6-1.7-1.7-2.6-4.3-2.6-7.6V12.9c0-3.3.9-5.9 2.6-7.6 1.7-1.7 4.3-2.8 7.6-2.8h30.3l-.1-2.4c-1.2-2.7-1.8-5.6-1.8-8.8 0-5.7 2.1-10.6 6.3-14.8s9.3-6.3 15.3-6.3c6 0 11.2 2.1 15.3 6.3s6.3 9.1 6.3 14.8c0 3.3-.6 6.2-1.6 8.8h25.8c3.3 0 5.9.9 7.6 2.6 1.7 1.7 2.6 4.3 2.6 7.6v45.9z"/><path fill="#e70488" d="M244.7 151h-29.2v-8.3c-1.9 3-4.5 5.4-8 7.4-3.5 2-7.6 2.9-12.3 2.9-4.4 0-8.3-.8-12-2.3-3.6-1.6-6.7-3.7-9.3-6.6-2.6-2.9-4.8-6.1-6.3-10-1.4-3.8-2.2-8-2.2-12.7 0-7.9 2.1-14.7 6.4-20.1 4.2-5.4 10.2-8.2 18.1-8.2 5.4 0 9.9 1.4 13.9 4.1v-4.3c0-4.1-1-7.1-3.1-9.2-2-2-4.9-3.1-8.6-3.1-2.2 0-4.4.4-6.6 1.2-2.3.8-5.1 2.1-8.5 4l-3.6-6.9c0-.3.2-.6.8-1 3.5-2.2 6.8-3.8 9.9-4.9 3.1-1 6.2-1.6 9.4-1.6 9.6 0 16.9 2.4 21.8 7.3 4.9 4.9 7.3 11.8 7.3 20.7v42.6c0 3.4.8 6 2.5 7.6 1.7 1.7 4.2 2.6 7.6 2.6h-2.1v9.2z"/></svg>
