<svg xmlns="http://www.w3.org/2000/svg" viewBox="0 0 100 100"><g fill="#F59E3F"><path d="M50 4.8c-25 0-45.2 20.2-45.2 45.2S25 95.2 50 95.2c25 0 45.2-20.2 45.2-45.2S75 4.8 50 4.8zM24.7 75.3C18.4 69 18.4 58.8 24.7 52.5c6.3-6.3 16.5-6.3 22.8 0 6.3 6.3 6.3 16.5 0 22.8-6.3 6.3-16.5 6.3-22.8 0zm50.6 0c-6.3 6.3-16.5 6.3-22.8 0-6.3-6.3-6.3-16.5 0-22.8 6.3-6.3 16.5-6.3 22.8 0 6.3 6.3 6.3 16.5 0 22.8z"/></g><path fill="#3776AB" d="M50 24.2c-6.3 0-11.4 5.1-11.4 11.4S43.7 47 50 47s11.4-5.1 11.4-11.4S56.3 24.2 50 24.2z"/></svg>
