<svg xmlns="http://www.w3.org/2000/svg" viewBox="0 0 223 234"><path fill="#F0981D" d="M117.7 5.7l93.1 53.8c7.3 4.2 11.8 12.1 11.8 20.6v107.8c0 8.5-4.5 16.4-11.8 20.6l-93.1 53.8c-7.3 4.2-16.4 4.2-23.7 0L11 208.5c-7.3-4.2-11.8-12.1-11.8-20.6V80.1c0-8.5 4.5-16.4 11.8-20.6l93.1-53.8c7.3-4.2 16.3-4.2 23.6 0z"/><path fill="#E65814" d="M72.9 122.9h91.5l-33.6 57.6-57.9-57.6z"/><path fill="#E65814" d="M153 172.9l6.3-10.9-47.5-67.9-13.3 15.6 54.5 63.2z"/><path fill="#FFF" d="M111.9 180.5l-38.1-54.6 12.5-12.9 25.6 67.5z"/></svg>
